<?xml version="1.0" encoding="utf-8"?>
<!-- Generator: Adobe Illustrator 15.1.0, SVG Export Plug-In . SVG Version: 6.00 Build 0)  -->
<!DOCTYPE svg PUBLIC "-//W3C//DTD SVG 1.1//EN" "http://www.w3.org/Graphics/SVG/1.1/DTD/svg11.dtd">
<svg version="1.1" id="Layer_1" xmlns="http://www.w3.org/2000/svg" xmlns:xlink="http://www.w3.org/1999/xlink" x="0px" y="0px"
	 width="1400px" height="980px" viewBox="0 0 1400 980" enable-background="new 0 0 1400 980" xml:space="preserve">
<g>
	<g>
		<path fill-rule="evenodd" clip-rule="evenodd" d="M1089.831,201.412c-5.766-13.919-1.687-32.818-12.336-43.469
			s-29.552-6.57-43.468-12.329c-13.914-5.769-24.396-22.019-39.459-22.019c-15.059,0-25.543,16.25-39.455,22.019
			c-13.914,5.759-32.818,1.678-43.468,12.329s-6.57,29.553-12.337,43.469c-5.76,13.916-22.014,24.394-22.014,39.457
			c0,15.061,16.254,25.545,22.014,39.46c5.767,13.913,1.688,32.815,12.337,43.466c10.649,10.648,29.554,6.57,43.468,12.333
			c13.912,5.766,24.396,22.015,39.455,22.015c15.063,0,25.545-16.25,39.459-22.015c13.916-5.763,32.818-1.685,43.468-12.333
			c10.649-10.651,6.57-29.554,12.336-43.469c5.763-13.913,22.012-24.396,22.012-39.458
			C1111.843,225.806,1095.594,215.328,1089.831,201.412z M1088.872,263.334c-3.306,4.167-6.723,8.477-8.609,13.031
			c-1.886,4.553-2.517,10.017-3.127,15.302c-0.984,8.537-2.003,17.363-8.204,23.564c-6.202,6.203-15.03,7.221-23.566,8.206
			c-5.283,0.608-10.748,1.239-15.301,3.125s-8.863,5.304-13.029,8.609c-6.732,5.34-13.695,10.861-22.467,10.861
			c-8.77,0-15.732-5.521-22.465-10.861c-4.166-3.305-8.477-6.723-13.027-8.609c-4.555-1.886-10.018-2.517-15.301-3.125
			c-8.538-0.984-17.364-2.003-23.565-8.206c-6.202-6.201-7.221-15.026-8.207-23.563c-0.608-5.283-1.239-10.747-3.127-15.3
			c-1.886-4.558-5.305-8.869-8.612-13.037c-5.338-6.731-10.857-13.692-10.857-22.462c0-8.771,5.521-15.73,10.859-22.461
			c3.307-4.168,6.726-8.478,8.61-13.033c1.888-4.556,2.519-10.021,3.127-15.305c0.986-8.535,2.005-17.361,8.207-23.562
			c6.203-6.203,15.031-7.221,23.569-8.206c5.281-0.608,10.744-1.238,15.297-3.123c4.55-1.888,8.856-5.303,13.023-8.607
			c6.733-5.343,13.696-10.866,22.469-10.866c8.773,0,15.737,5.523,22.472,10.864c4.165,3.306,8.474,6.721,13.026,8.609
			c4.55,1.885,10.012,2.514,15.295,3.123c8.538,0.984,17.366,2.003,23.57,8.206c6.201,6.201,7.22,15.027,8.204,23.562
			c0.61,5.285,1.241,10.75,3.127,15.304c1.887,4.555,5.304,8.865,8.609,13.031c5.338,6.732,10.859,13.693,10.859,22.465
			S1094.21,256.602,1088.872,263.334z"/>
		<path fill-rule="evenodd" clip-rule="evenodd" d="M1085.076,221.415c-3.512-4.428-7.145-9.006-9.289-14.187
			c-2.146-5.181-2.816-10.987-3.463-16.603c-0.931-8.065-1.811-15.685-6.817-20.692c-5.011-5.009-12.632-5.887-20.7-6.818
			c-5.612-0.646-11.418-1.316-16.595-3.46c-5.18-2.146-9.756-5.778-14.183-9.289c-6.365-5.048-12.375-9.815-19.461-9.815
			c-7.084,0-13.096,4.768-19.459,9.815c-4.427,3.512-9.003,7.143-14.179,9.289c-5.179,2.144-10.984,2.813-16.597,3.46
			c-8.069,0.931-15.689,1.809-20.698,6.818c-5.009,5.007-5.889,12.627-6.819,20.692c-0.648,5.616-1.318,11.422-3.465,16.603
			c-2.143,5.181-5.776,9.76-9.29,14.19c-5.045,6.36-9.811,12.369-9.811,19.451c0,7.083,4.764,13.089,9.809,19.451
			c3.516,4.43,7.149,9.011,9.294,14.195c2.145,5.178,2.814,10.984,3.463,16.598c0.931,8.067,1.811,15.686,6.819,20.692
			c5.009,5.009,12.627,5.887,20.695,6.817c5.614,0.648,11.419,1.318,16.598,3.463c5.18,2.145,9.758,5.777,14.186,9.289
			c6.362,5.046,12.372,9.813,19.454,9.813c7.084,0,13.095-4.766,19.456-9.813c4.429-3.512,9.008-7.144,14.188-9.289
			c5.179-2.145,10.983-2.815,16.598-3.463c8.068-0.93,15.687-1.809,20.697-6.817c5.007-5.007,5.886-12.627,6.817-20.694
			c0.646-5.616,1.316-11.421,3.463-16.601c2.145-5.181,5.777-9.759,9.289-14.187c5.045-6.362,9.811-12.371,9.811-19.455
			S1090.121,227.777,1085.076,221.415z M1067.53,269.937c-1.126,2.721-1.761,5.69-2.218,8.738H923.826
			c-0.457-3.048-1.091-6.016-2.217-8.735c-4.413-10.661-16.862-18.688-16.862-30.224c0-11.536,12.449-19.561,16.862-30.22
			c1.126-2.721,1.76-5.69,2.219-8.738h141.484c0.457,3.048,1.092,6.018,2.218,8.738c4.414,10.659,16.859,18.685,16.859,30.22
			C1084.39,251.252,1071.944,259.28,1067.53,269.937z"/>
	</g>
	<path d="M818.178,202.313H798.4c-0.01-0.022-0.019-0.047-0.028-0.069c-1.611-3.891-2.181-8.832-2.785-14.063
		c-1.074-9.301-2.29-19.844-10.112-27.669c-7.825-7.825-18.37-9.041-27.675-10.112c-5.231-0.603-10.17-1.172-14.053-2.779
		c-3.89-1.612-7.784-4.703-11.908-7.975c-7.338-5.819-15.655-12.417-26.722-12.417c-11.064,0-19.381,6.598-26.719,12.419
		c-4.124,3.271-8.021,6.362-11.902,7.972c-3.889,1.608-8.828,2.178-14.058,2.78c-9.305,1.071-19.852,2.287-27.675,10.112
		c-7.824,7.822-9.04,18.366-10.112,27.667c-0.604,5.232-1.175,10.173-2.788,14.069c-0.01,0.021-0.019,0.044-0.029,0.064h-19.777
		c-9.967,0-18.076,8.107-18.076,18.074v40.965c0,9.967,8.109,18.076,18.076,18.076h19.777c0.011,0.023,0.021,0.049,0.032,0.074
		c1.61,3.887,2.181,8.827,2.785,14.058c1.072,9.303,2.29,19.844,10.112,27.667c7.824,7.824,18.368,9.04,27.67,10.112
		c5.231,0.603,10.172,1.173,14.058,2.782c3.889,1.61,7.784,4.701,11.908,7.974c7.338,5.819,15.654,12.416,26.718,12.416
		c11.064,0,19.382-6.597,26.72-12.416c4.124-3.272,8.021-6.363,11.907-7.972c3.889-1.61,8.829-2.181,14.059-2.783
		c9.305-1.072,19.849-2.288,27.672-10.112c7.822-7.825,9.038-18.368,10.112-27.671c0.604-5.231,1.174-10.172,2.785-14.062
		c0.01-0.024,0.019-0.044,0.028-0.066h19.777c9.967,0,18.074-8.109,18.074-18.076v-40.965
		C836.252,210.42,828.145,202.313,818.178,202.313z M636.729,172.477c3.654-3.654,10.139-4.401,17.646-5.266
		c6.155-0.709,12.519-1.441,18.596-3.957c6.072-2.519,11.09-6.499,15.944-10.35c5.92-4.698,11.035-8.754,16.202-8.754
		c5.17,0,10.282,4.056,16.204,8.754c4.854,3.851,9.872,7.832,15.95,10.352c6.073,2.514,12.437,3.246,18.592,3.955
		c7.507,0.864,13.991,1.612,17.646,5.266c3.653,3.656,4.401,10.137,5.267,17.643c0.464,4.023,0.95,8.132,1.923,12.193h-151.16
		c0.973-4.061,1.458-8.17,1.922-12.193C632.327,182.614,633.076,176.132,636.729,172.477z M773.509,309.26
		c-3.654,3.654-10.138,4.402-17.643,5.268c-6.156,0.709-12.521,1.443-18.598,3.96c-6.073,2.517-11.093,6.497-15.947,10.348
		c-5.922,4.696-11.034,8.752-16.204,8.752c-5.167,0-10.28-4.056-16.202-8.752c-4.853-3.851-9.872-7.832-15.947-10.348
		c-6.075-2.517-12.44-3.25-18.596-3.96c-7.507-0.866-13.988-1.613-17.643-5.266c-3.654-3.655-4.401-10.135-5.269-17.642
		c-0.469-4.07-0.96-8.23-1.96-12.335h151.234c-0.996,4.106-1.488,8.265-1.959,12.333C777.91,299.125,777.162,305.606,773.509,309.26
		z M819.331,261.352c0,0.637-0.518,1.155-1.153,1.155h-24.827v-0.145H616.886v0.145h-24.829c-0.636,0-1.153-0.518-1.153-1.155
		v-40.965c0-0.635,0.517-1.153,1.153-1.153h24.829h4.667h167.132h4.666h24.827c0.636,0,1.153,0.518,1.153,1.153V261.352z"/>
	<g>
		<g>
			<path d="M414.586,359.426l-20.852-13.717l-24.516,4.693l-14.021-20.654l-24.444-5.045l-5.043-24.445l-20.658-14.017l4.695-24.518
				l-13.718-20.854l13.718-20.851l-4.695-24.518l20.658-14.019l5.043-24.444l24.444-5.045l14.021-20.658l24.513,4.695l20.854-13.717
				l20.853,13.717l24.517-4.695l14.015,20.658l24.449,5.045l5.045,24.444L524.12,195.5l-4.695,24.515l13.719,20.854l-13.719,20.854
				l4.695,24.518l-20.656,14.015l-5.045,24.447l-24.449,5.045l-14.015,20.654l-24.515-4.693L414.586,359.426z M396.29,332.864
				l18.296,12.038l18.3-12.036l21.511,4.118l12.299-18.126l21.454-4.425l4.427-21.453l18.125-12.296l-4.119-21.514l12.038-18.3
				l-12.038-18.3l4.119-21.512l-18.125-12.299l-4.427-21.449l-21.454-4.428l-12.299-18.126l-21.511,4.118l-18.3-12.034
				l-18.301,12.036l-21.509-4.12l-12.304,18.126l-21.448,4.428l-4.427,21.449l-18.126,12.299l4.121,21.516l-12.039,18.296
				l12.039,18.3l-4.121,21.514l18.126,12.297l4.427,21.451l21.448,4.425l12.304,18.126L396.29,332.864z"/>
		</g>
		<g>
			<g>
				<polygon fill-rule="evenodd" clip-rule="evenodd" points="502.389,205.984 502.696,204.374 486.082,193.098 482.023,173.436 
					462.356,169.375 451.082,152.759 431.361,156.535 414.586,145.501 397.81,156.535 378.09,152.759 366.812,169.375 
					347.149,173.436 343.091,193.098 326.476,204.374 326.783,205.984 				"/>
			</g>
			<g>
				<polygon fill-rule="evenodd" clip-rule="evenodd" points="326.785,275.755 326.476,277.367 343.091,288.641 347.149,308.305 
					366.812,312.364 378.09,328.978 397.813,325.203 414.586,336.237 431.361,325.203 451.082,328.978 462.356,312.364 
					482.023,308.305 486.082,288.639 502.696,277.367 502.389,275.755 				"/>
			</g>
		</g>
	</g>
	<g>
		<path fill-rule="evenodd" clip-rule="evenodd" d="M629.696,454.363c-11.3-25.751-37.029-43.791-66.906-43.791
			c-29.875,0-55.604,18.04-66.905,43.791H629.696z"/>
		<path fill-rule="evenodd" clip-rule="evenodd" d="M494.546,509.59c10.497,27.481,37.122,47.059,68.244,47.059
			c31.125,0,57.75-19.577,68.246-47.059H494.546z"/>
		<path fill-rule="evenodd" clip-rule="evenodd" d="M671.354,476.129c-1.587-2.526-6.466-3.209-8.232-6.488
			c-1.775-3.28-2.679-7.863-2.282-11.541c0.393-3.675,5.07-4.906,5.135-9.16c0.062-4.255-2.681-10.847-5.723-13.783
			c-3.042-2.933-7.226-0.514-10.115-2.846c-2.891-2.336-5.479-6.203-6.527-9.754c-1.047-3.55,2.804-6.472,1.238-10.42
			c-1.563-3.945-6.633-9.017-10.583-10.585c-3.946-1.563-6.87,2.289-10.419,1.24c-3.553-1.049-7.42-3.638-9.754-6.527
			c-2.333-2.888,0.087-7.073-2.85-10.115c-2.934-3.043-9.525-5.784-13.777-5.723c-4.258,0.062-5.488,4.742-9.166,5.138
			c-3.671,0.393-8.257-0.509-11.536-2.284c-3.279-1.769-3.963-6.646-6.493-8.235c-2.527-1.588-4.965-0.262-7.477-0.262
			c-2.519,0-4.953-1.326-7.478,0.262c-2.531,1.589-3.212,6.466-6.493,8.235c-3.279,1.774-7.865,2.676-11.538,2.284
			c-3.674-0.396-4.906-5.077-9.163-5.138c-4.253-0.061-10.848,2.68-13.78,5.723c-2.932,3.042-0.517,7.228-2.85,10.115
			c-2.331,2.889-6.199,5.479-9.752,6.527c-3.547,1.049-6.476-2.802-10.42-1.24c-3.947,1.568-9.017,6.64-10.582,10.585
			c-1.566,3.948,2.282,6.87,1.235,10.42c-1.046,3.551-3.637,7.418-6.526,9.754c-2.888,2.332-7.073-0.087-10.113,2.846
			c-3.044,2.937-5.788,9.53-5.723,13.783c0.062,4.253,4.739,5.49,5.135,9.16c0.393,3.678-0.509,8.26-2.279,11.541
			c-1.772,3.279-6.649,3.961-8.24,6.488c-1.589,2.531-0.258,4.968-0.258,7.481c0,2.516-1.331,4.95,0.258,7.481
			c1.591,2.525,6.468,3.21,8.24,6.487c1.77,3.28,2.671,7.863,2.279,11.537c-0.396,3.672-5.073,4.905-5.135,9.163
			c-0.065,4.255,2.679,10.847,5.723,13.783c3.041,2.937,7.226,0.514,10.115,2.848s5.479,6.198,6.524,9.746
			c1.047,3.552-2.801,6.479-1.235,10.425c1.566,3.948,6.634,9.021,10.583,10.585c3.946,1.564,6.871-2.287,10.421-1.236
			c3.55,1.047,7.418,3.637,9.749,6.52c2.333,2.892-0.086,7.08,2.85,10.121c2.932,3.044,9.527,5.781,13.784,5.715
			c4.254-0.054,5.486-4.73,9.159-5.128c3.676-0.395,8.257,0.511,11.538,2.276c3.28,1.773,3.961,6.652,6.493,8.242
			c2.525,1.586,4.959,0.262,7.478,0.262c2.512,0,4.95,1.324,7.477-0.262c2.529-1.59,3.214-6.469,6.493-8.242
			c3.278-1.766,7.864-2.671,11.536-2.276c3.674,0.397,4.905,5.074,9.161,5.128c4.256,0.066,10.85-2.671,13.785-5.715
			c2.934-3.041,0.514-7.229,2.847-10.121c2.334-2.883,6.201-5.473,9.752-6.52c3.548-1.051,6.469,2.801,10.421,1.236
			c3.947-1.568,9.021-6.637,10.583-10.585c1.566-3.946-2.285-6.873-1.238-10.425c1.046-3.548,3.637-7.412,6.526-9.746
			c2.891-2.334,7.075,0.089,10.117-2.848c3.042-2.939,5.785-9.528,5.723-13.783c-0.065-4.258-4.742-5.491-5.138-9.163
			c-0.394-3.674,0.51-8.257,2.285-11.537c1.767-3.277,6.646-3.962,8.232-6.487c1.591-2.531,0.263-4.966,0.263-7.481
			C671.617,481.097,672.944,478.66,671.354,476.129z M654.626,471.385l-3.533,0.465c-0.227-1.725-0.509-3.465-0.837-5.168
			l3.498-0.675C654.096,467.782,654.389,469.589,654.626,471.385z M649.339,450.52c0.645,1.686,1.249,3.417,1.795,5.141
			l-3.398,1.077c-0.524-1.661-1.104-3.326-1.724-4.945L649.339,450.52z M632.85,423.004c1.186,1.369,2.345,2.788,3.444,4.222
			l-2.828,2.167c-1.057-1.375-2.17-2.741-3.309-4.056L632.85,423.004z M621.297,411.785c1.407,1.146,2.793,2.347,4.121,3.567
			l-2.411,2.623c-1.276-1.173-2.608-2.325-3.961-3.427L621.297,411.785z M607.976,402.723c1.577,0.88,3.151,1.823,4.678,2.802
			l-1.921,3c-1.468-0.94-2.98-1.845-4.496-2.692L607.976,402.723z M593.276,396.109c1.717,0.598,3.433,1.252,5.1,1.949l-1.371,3.288
			c-1.603-0.668-3.25-1.298-4.9-1.872L593.276,396.109z M577.657,392.162c1.785,0.289,3.584,0.634,5.348,1.025l-0.771,3.479
			c-1.697-0.378-3.429-0.709-5.146-0.987L577.657,392.162z M562.791,390.974c1.426,0,2.845,0.033,4.253,0.098l-0.161,3.558
			c-1.356-0.062-2.72-0.092-4.092-0.092l-1.145,0.006l-0.047-3.563L562.791,390.974z M550.96,391.723l0.449,3.536
			c-1.716,0.216-3.457,0.492-5.173,0.814l-0.657-3.501C547.364,392.236,549.174,391.95,550.96,391.723z M535.223,395.147
			l1.058,3.402c-1.666,0.521-3.331,1.091-4.95,1.705l-1.26-3.334C531.755,396.282,533.489,395.687,535.223,395.147z
			 M520.321,401.264l1.637,3.162c-1.548,0.803-3.088,1.657-4.576,2.541l-1.817-3.066
			C517.11,402.985,518.711,402.099,520.321,401.264z M506.719,409.867l2.159,2.837c-1.378,1.049-2.749,2.156-4.07,3.291
			l-2.322-2.703C503.862,412.111,505.286,410.96,506.719,409.867z M494.8,420.692l2.616,2.422c-1.177,1.268-2.335,2.597-3.448,3.949
			l-2.75-2.268C492.373,423.392,493.58,422.013,494.8,420.692z M484.921,433.412l2.993,1.935c-0.941,1.458-1.854,2.968-2.712,4.485
			l-3.102-1.753C482.993,436.5,483.942,434.931,484.921,433.412z M477.391,447.661l3.284,1.383
			c-0.677,1.605-1.314,3.252-1.893,4.894l-3.361-1.188C476.024,451.043,476.688,449.329,477.391,447.661z M472.457,463.005
			l3.475,0.792c-0.387,1.69-0.726,3.419-1.009,5.136l-3.516-0.581C471.703,466.564,472.056,464.765,472.457,463.005z
			 M470.156,483.61c0-1.558,0.038-3.11,0.115-4.65l3.558,0.178c-0.072,1.48-0.11,2.971-0.11,4.472l0.005,0.762l-3.564,0.035
			L470.156,483.61z M470.854,495.05l3.537-0.436c0.215,1.734,0.481,3.476,0.792,5.176l-3.503,0.644
			C471.356,498.664,471.077,496.854,470.854,495.05z M475.962,515.958c-0.629-1.688-1.219-3.423-1.75-5.16l3.406-1.044
			c0.511,1.668,1.077,3.337,1.683,4.958L475.962,515.958z M482.881,530.495c-0.916-1.556-1.796-3.161-2.62-4.77l3.173-1.621
			c0.792,1.546,1.637,3.088,2.519,4.586L482.881,530.495z M492.214,543.615c-1.17-1.378-2.317-2.807-3.406-4.248l2.845-2.148
			c1.047,1.389,2.149,2.764,3.275,4.085L492.214,543.615z M503.672,554.93c-1.394-1.158-2.771-2.366-4.091-3.6l2.432-2.604
			c1.269,1.186,2.592,2.353,3.933,3.463L503.672,554.93z M516.915,564.104c-1.576-0.899-3.142-1.857-4.654-2.842l1.946-2.987
			c1.456,0.95,2.96,1.867,4.476,2.735L516.915,564.104z M531.556,570.845c-1.712-0.612-3.422-1.284-5.081-1.99l1.397-3.277
			c1.594,0.682,3.237,1.325,4.886,1.915L531.556,570.845z M547.14,574.926c-1.771-0.303-3.569-0.662-5.336-1.069l0.799-3.473
			c1.703,0.395,3.432,0.741,5.138,1.032L547.14,574.926z M563.18,576.244h-0.39c-1.662,0-3.359-0.044-5.045-0.132l0.191-3.562
			c1.621,0.085,3.255,0.13,4.854,0.13h0.39V576.244z M573.834,575.595l-0.418-3.539c1.725-0.205,3.468-0.464,5.179-0.772
			l0.627,3.507C577.444,575.112,575.631,575.38,573.834,575.595z M589.602,572.302l-1.03-3.409c1.662-0.502,3.334-1.06,4.966-1.659
			l1.229,3.343C593.069,571.201,591.332,571.781,589.602,572.302z M604.552,566.318l-1.605-3.179
			c1.54-0.779,3.085-1.618,4.596-2.498l1.793,3.078C607.764,564.635,606.156,565.511,604.552,566.318z M618.229,557.831
			l-2.134-2.852c1.394-1.044,2.772-2.138,4.099-3.258l2.298,2.722C621.114,555.607,619.679,556.746,618.229,557.831z
			 M630.24,547.107l-2.594-2.441c1.189-1.265,2.361-2.583,3.479-3.921l2.731,2.29C632.694,544.423,631.478,545.792,630.24,547.107z
			 M562.791,560.209c-42.238,0-76.601-34.36-76.601-76.599c0-42.239,34.363-76.603,76.601-76.603s76.601,34.363,76.601,76.603
			C639.392,525.849,605.028,560.209,562.791,560.209z M640.226,534.472l-2.976-1.958c0.957-1.454,1.883-2.956,2.752-4.463
			l3.086,1.778C642.185,531.396,641.223,532.958,640.226,534.472z M641.797,442.439c-0.801-1.536-1.661-3.072-2.557-4.565
			l3.056-1.831c0.931,1.553,1.826,3.151,2.659,4.747L641.797,442.439z M647.879,520.291l-3.271-1.409
			c0.689-1.6,1.34-3.239,1.935-4.876l3.35,1.214C649.273,516.923,648.595,518.629,647.879,520.291z M652.946,504.988l-3.466-0.817
			c0.397-1.693,0.752-3.419,1.052-5.132l3.509,0.612C653.73,501.434,653.361,503.228,652.946,504.988z M655.269,489.053
			l-3.558-0.205c0.101-1.739,0.151-3.502,0.151-5.237c0-0.509-0.005-1.022-0.013-1.53l3.563-0.058
			c0.008,0.528,0.013,1.058,0.013,1.588C655.425,485.413,655.373,487.244,655.269,489.053z"/>
	</g>
	<g>
		<path fill-rule="evenodd" clip-rule="evenodd" d="M914.608,452.566c-12.211-29.359-41.188-50.06-74.913-50.06
			c-33.729,0-62.705,20.7-74.916,50.06H914.608z"/>
		<path fill-rule="evenodd" clip-rule="evenodd" d="M764.779,514.655c12.211,29.354,41.187,50.058,74.916,50.058
			c33.726,0,62.701-20.703,74.913-50.058H764.779z"/>
		<path fill-rule="evenodd" clip-rule="evenodd" d="M949.66,505.486l-9.899-7.299c0.444-3.078,0.767-6.191,0.927-9.351l11.125-5.227
			l-11.125-5.225c-0.16-3.157-0.482-6.273-0.927-9.35l9.899-7.298l-11.918-2.951c-0.772-3.063-1.694-6.061-2.738-9.003l8.273-9.077
			l-12.262-0.568c-1.354-2.842-2.843-5.606-4.447-8.289l6.348-10.528l-12.149,1.836c-1.876-2.514-3.873-4.93-5.969-7.256
			l4.175-11.568l-11.569,4.173c-2.325-2.097-4.742-4.092-7.256-5.967l1.835-12.151l-10.526,6.347
			c-2.686-1.604-5.448-3.091-8.287-4.444l-0.569-12.263l-9.079,8.273c-2.942-1.046-5.943-1.965-9.005-2.736l-2.949-11.917
			l-7.3,9.896c-3.075-0.443-6.189-0.766-9.349-0.925l-5.223-11.126l-5.227,11.126c-3.159,0.159-6.273,0.482-9.351,0.925
			l-7.298-9.896l-2.952,11.917c-3.059,0.773-6.06,1.692-9.001,2.736l-9.078-8.273l-0.569,12.263
			c-2.841,1.353-5.602,2.84-8.289,4.446l-10.525-6.349l1.834,12.151c-2.512,1.876-4.93,3.87-7.254,5.967l-11.571-4.173l4.177,11.568
			c-2.098,2.326-4.095,4.742-5.971,7.257l-12.149-1.834l6.348,10.525c-1.604,2.688-3.093,5.449-4.446,8.288l-12.265,0.569
			l8.276,9.079c-1.044,2.944-1.965,5.941-2.737,9.002l-11.916,2.952l9.896,7.297c-0.444,3.077-0.767,6.193-0.927,9.352
			l-11.125,5.223l11.125,5.227c0.16,3.159,0.483,6.275,0.927,9.351l-9.896,7.299l11.916,2.949c0.772,3.06,1.692,6.059,2.736,8.998
			l-8.275,9.081l12.264,0.567c1.354,2.842,2.843,5.602,4.447,8.289l-6.348,10.528l12.147-1.836c1.878,2.514,3.873,4.933,5.973,7.258
			l-4.177,11.569l11.569-4.173c2.325,2.094,4.744,4.091,7.256,5.967l-1.834,12.149l10.525-6.349
			c2.688,1.605,5.448,3.094,8.289,4.447l0.569,12.263l9.078-8.273c2.941,1.044,5.942,1.962,9.001,2.735l2.952,11.916l7.3-9.895
			c3.075,0.444,6.191,0.767,9.351,0.927l5.225,11.125l5.225-11.125c3.158-0.16,6.273-0.482,9.349-0.927l7.3,9.895l2.949-11.916
			c3.061-0.771,6.061-1.691,9.003-2.735l9.079,8.273l0.569-12.263c2.84-1.354,5.602-2.842,8.289-4.447l10.524,6.349l-1.835-12.149
			c2.514-1.876,4.931-3.87,7.257-5.967l11.568,4.173l-4.175-11.569c2.099-2.325,4.094-4.744,5.972-7.258l12.146,1.836l-6.348-10.525
			c1.605-2.688,3.093-5.45,4.449-8.292l12.26-0.567l-8.273-9.077c1.046-2.94,1.966-5.942,2.738-9.002L949.66,505.486z
			 M839.695,569.678c-47.461,0-86.071-38.609-86.071-86.067c0-47.459,38.61-86.069,86.071-86.069
			c47.457,0,86.067,38.61,86.067,86.069C925.763,531.068,887.152,569.678,839.695,569.678z"/>
	</g>
	<path fill-rule="evenodd" clip-rule="evenodd" d="M1224.484,483.609c0-4.755-9.447-5.534-9.912-10.268
		c-0.467-4.731,8.646-7.339,7.715-12.004c-0.929-4.668-10.338-3.586-11.719-8.137c-1.385-4.555,7.043-8.888,5.223-13.282
		c-1.821-4.397-10.844-1.501-13.084-5.696c-2.243-4.197,5.174-10.087,2.534-14.043c-2.64-3.954-10.926,0.644-13.944-3.033
		c-3.019-3.678,3.108-10.904-0.254-14.269c-3.363-3.362-10.592,2.765-14.268-0.254c-3.679-3.017,0.916-11.299-3.035-13.944
		c-3.954-2.643-9.846,4.775-14.045,2.536c-4.195-2.243-1.299-11.266-5.695-13.089c-4.394-1.813-8.724,6.609-13.277,5.228
		c-4.554-1.382-3.476-10.795-8.139-11.722c-4.666-0.926-7.271,8.18-12.006,7.72c-4.732-0.472-5.514-9.912-10.27-9.912
		c-4.755,0-5.534,9.44-10.27,9.912c-4.731,0.46-7.338-8.646-12.005-7.72c-4.661,0.927-3.584,10.34-8.139,11.722
		c-4.55,1.381-8.884-7.042-13.277-5.228c-4.396,1.823-1.501,10.847-5.697,13.089c-4.195,2.239-10.089-5.179-14.04-2.536
		c-3.957,2.645,0.642,10.927-3.035,13.944c-3.677,3.019-10.903-3.108-14.267,0.254c-3.364,3.365,2.763,10.591-0.256,14.269
		c-3.017,3.676-11.303-0.921-13.942,3.033c-2.646,3.957,4.773,9.847,2.534,14.045c-2.244,4.193-11.27,1.298-13.088,5.695
		c-1.821,4.394,6.608,8.727,5.228,13.283c-1.384,4.55-10.794,3.468-11.723,8.136c-0.93,4.665,8.181,7.273,7.713,12.004
		c-0.464,4.734-9.907,5.513-9.907,10.268c0,4.758,9.443,5.537,9.907,10.267c0.468,4.734-8.643,7.346-7.713,12.008
		c0.929,4.668,10.339,3.586,11.723,8.138c1.381,4.548-7.049,8.888-5.228,13.281c1.818,4.391,10.844,1.502,13.088,5.696
		c2.239,4.191-5.181,10.09-2.534,14.039c2.64,3.955,10.926-0.641,13.942,3.034c3.019,3.678-3.108,10.903,0.256,14.269
		c3.363,3.365,10.59-2.76,14.267,0.256c3.677,3.019-0.922,11.301,3.035,13.947c3.951,2.64,9.847-4.782,14.043-2.539
		c4.193,2.242,1.298,11.27,5.694,13.086c4.394,1.82,8.728-6.607,13.277-5.227c4.555,1.382,3.478,10.794,8.143,11.724
		c4.666,0.928,7.27-8.185,12.001-7.715c4.735,0.467,5.515,9.91,10.27,9.91c4.756,0,5.537-9.443,10.272-9.91
		c4.731-0.47,7.337,8.643,12.003,7.715c4.666-0.93,3.585-10.342,8.139-11.724c4.554-1.381,8.884,7.047,13.277,5.227
		c4.396-1.816,1.5-10.844,5.699-13.086c4.195-2.243,10.087,5.179,14.041,2.539c3.951-2.646-0.639-10.929,3.035-13.947
		c3.676-3.016,10.904,3.109,14.268-0.256c3.362-3.365-2.765-10.591,0.254-14.269c3.019-3.675,11.305,0.921,13.944-3.034
		c2.64-3.952-4.777-9.848-2.534-14.045c2.24-4.188,11.263-1.3,13.084-5.69c1.82-4.396-6.607-8.733-5.223-13.281
		c1.381-4.552,10.79-3.47,11.719-8.138c0.931-4.665-8.182-7.273-7.715-12.008C1215.037,489.146,1224.484,488.367,1224.484,483.609z
		 M1110.312,578.131c-42.838,0-79.088-28.655-90.647-67.797h36.671c9.867,19.846,30.35,33.524,53.977,33.524
		s44.108-13.679,53.976-33.524h36.672C1189.399,549.476,1153.15,578.131,1110.312,578.131z M1164.289,456.889
		c-9.868-19.848-30.351-33.527-53.978-33.527s-44.111,13.679-53.977,33.527h-36.673c11.562-39.143,47.812-67.798,90.649-67.798
		c42.839,0,79.088,28.655,90.647,67.798H1164.289z"/>
	<path fill-rule="evenodd" clip-rule="evenodd" d="M396.136,483.61l-12.766-19.404l4.37-22.809l-19.219-13.043l-4.693-22.742
		l-22.747-4.698l-13.041-19.218l-22.812,4.367l-19.402-12.762l-19.405,12.762l-22.807-4.367l-13.045,19.218l-22.744,4.698
		l-4.693,22.742l-19.219,13.043l4.37,22.812l-12.766,19.4l12.766,19.403l-4.37,22.81l19.219,13.042l4.693,22.747l22.744,4.693
		l13.045,19.215l22.812-4.368l19.4,12.765l19.402-12.765l22.812,4.368l13.041-19.215l22.747-4.693l4.693-22.75l19.219-13.039
		l-4.37-22.81L396.136,483.61z M356.083,435.281c0.963,1.397,1.896,2.842,2.774,4.294l-4.253,2.567
		c-0.825-1.367-1.703-2.727-2.61-4.042L356.083,435.281z M346.442,423.643c1.192,1.205,2.364,2.463,3.485,3.739l-3.731,3.279
		c-1.059-1.205-2.164-2.389-3.285-3.525L346.442,423.643z M334.902,413.874c1.397,0.984,2.774,2.017,4.092,3.072l-3.1,3.879
		c-1.243-0.992-2.539-1.965-3.854-2.894L334.902,413.874z M321.814,406.287c1.538,0.718,3.075,1.49,4.574,2.301l-2.366,4.369
		c-1.41-0.763-2.859-1.492-4.307-2.167L321.814,406.287z M307.591,401.146c1.634,0.431,3.282,0.918,4.901,1.451l-1.548,4.717
		c-1.527-0.499-3.082-0.96-4.619-1.366L307.591,401.146z M292.687,398.613c1.69,0.134,3.4,0.323,5.08,0.558l-0.688,4.919
		c-1.583-0.221-3.194-0.397-4.788-0.525L292.687,398.613z M282.677,398.4l0.177,4.964c-1.589,0.057-3.206,0.163-4.805,0.315
		l-0.473-4.944C279.272,398.576,280.988,398.462,282.677,398.4z M267.675,400.279l1.055,4.854c-1.57,0.342-3.143,0.733-4.672,1.162
		l-1.345-4.781C264.338,401.056,266.008,400.642,267.675,400.279z M253.243,404.791l1.9,4.589c-1.482,0.613-2.957,1.277-4.384,1.97
		l-2.173-4.465C250.104,406.145,251.671,405.442,253.243,404.791z M285.826,416.841c23.347,0,43.882,11.99,55.816,30.142H230.009
		C241.944,428.831,262.48,416.841,285.826,416.841z M239.854,411.785l2.682,4.181c-1.345,0.863-2.682,1.777-3.974,2.719
		l-2.925-4.014C237.009,413.672,238.427,412.699,239.854,411.785z M227.903,421.036l3.376,3.645
		c-1.176,1.088-2.332,2.224-3.436,3.376l-3.586-3.437C225.429,423.396,226.656,422.191,227.903,421.036z M217.762,432.242
		l3.961,2.998c-0.96,1.267-1.899,2.589-2.788,3.928l-4.137-2.751C215.745,434.996,216.741,433.59,217.762,432.242z M209.746,445.069
		l4.43,2.248c-0.725,1.427-1.415,2.895-2.051,4.363l-4.558-1.976C208.243,448.145,208.976,446.585,209.746,445.069z
		 M210.127,522.891c-0.784-1.508-1.531-3.057-2.219-4.599l4.537-2.022c0.648,1.454,1.352,2.908,2.09,4.331L210.127,522.891z
		 M218.258,535.627c-1.031-1.341-2.039-2.732-2.995-4.136l4.105-2.794c0.902,1.324,1.853,2.634,2.826,3.898L218.258,535.627z
		 M228.508,546.738c-1.254-1.142-2.49-2.337-3.68-3.552l3.552-3.473c1.12,1.148,2.288,2.274,3.469,3.347L228.508,546.738z
		 M240.556,555.879c-1.431-0.899-2.861-1.858-4.252-2.852l2.888-4.04c1.311,0.937,2.657,1.839,4.004,2.684L240.556,555.879z
		 M254.035,562.751c-1.587-0.637-3.167-1.327-4.695-2.056l2.132-4.485c1.437,0.685,2.922,1.334,4.414,1.934L254.035,562.751z
		 M268.517,567.116c-1.671-0.344-3.346-0.744-4.975-1.183l1.296-4.797c1.533,0.416,3.108,0.791,4.684,1.116L268.517,567.116z
		 M283.533,568.845c-1.688-0.044-3.405-0.142-5.103-0.287l0.424-4.948c1.601,0.139,3.218,0.23,4.81,0.271L283.533,568.845z
		 M293.541,568.529l-0.445-4.945c1.603-0.145,3.211-0.338,4.78-0.574l0.743,4.911C296.949,568.173,295.241,568.378,293.541,568.529z
		 M308.419,565.849l-1.312-4.791c1.534-0.42,3.082-0.893,4.602-1.41l1.601,4.7C311.694,564.899,310.049,565.404,308.419,565.849z
		 M322.587,560.565l-2.145-4.481c1.441-0.691,2.88-1.433,4.275-2.205l2.408,4.344C325.645,559.042,324.117,559.831,322.587,560.565z
		 M335.583,552.86l-2.9-4.031c1.29-0.931,2.575-1.914,3.821-2.93l3.137,3.851C338.319,550.829,336.954,551.873,335.583,552.86z
		 M285.826,550.378c-23.346,0-43.879-11.991-55.814-30.14h111.627C329.706,538.387,309.171,550.378,285.826,550.378z
		 M347.024,542.981l-3.565-3.456c1.113-1.151,2.208-2.347,3.25-3.559l3.765,3.239C349.366,540.493,348.206,541.765,347.024,542.981z
		 M356.555,531.245l-4.118-2.775c0.896-1.331,1.763-2.703,2.575-4.078l4.275,2.529C358.425,528.382,357.505,529.836,356.555,531.245
		z M372.022,503.55c0,4.573-3.28,8.374-7.615,9.194l1.388,0.514c-0.588,1.587-1.236,3.186-1.926,4.747l-4.545-2.003
		c0.45-1.019,0.849-2.057,1.254-3.088H208.99c-5.169,0-9.361-4.195-9.361-9.364v-39.882c0-5.169,4.192-9.361,9.361-9.361h151.603
		c-0.503-1.282-1.027-2.566-1.596-3.82l4.525-2.053c0.702,1.547,1.362,3.132,1.968,4.714l-3.036,1.159h0.208
		c5.17,0,9.36,4.192,9.36,9.361V503.55z"/>
	<g>
		<path fill-rule="evenodd" clip-rule="evenodd" d="M384.498,629.927c-62.894,0-113.881,50.985-113.881,113.88
			c0,62.896,50.987,113.881,113.881,113.881c62.895,0,113.879-50.985,113.879-113.881
			C498.377,680.912,447.393,629.927,384.498,629.927z M487.131,712.084c1.019,3.305,1.886,6.695,2.58,10.08l-4.982,1.019
			c-0.657-3.224-1.484-6.453-2.455-9.601L487.131,712.084z M476.68,688.661c1.777,2.968,3.43,6.056,4.909,9.172l-4.594,2.18
			c-1.407-2.971-2.981-5.91-4.676-8.739L476.68,688.661z M460.975,668.394c2.425,2.46,4.761,5.068,6.938,7.749l-3.945,3.205
			c-2.074-2.555-4.301-5.044-6.614-7.387L460.975,668.394z M440.927,652.399c2.928,1.813,5.813,3.797,8.573,5.895l-3.077,4.047
			c-2.631-2-5.379-3.893-8.171-5.62L440.927,652.399z M417.652,641.609c3.283,1.065,6.557,2.309,9.73,3.69l-2.031,4.658
			c-3.023-1.318-6.14-2.495-9.265-3.514L417.652,641.609z M392.485,636.686c3.444,0.256,6.917,0.682,10.325,1.265l-0.86,5.009
			c-3.247-0.559-6.557-0.965-9.837-1.205L392.485,636.686z M377.206,636.639l0.342,5.071c-3.293,0.221-6.604,0.605-9.847,1.139
			l-0.828-5.012C370.274,637.275,373.75,636.872,377.206,636.639z M352.008,641.397l1.535,4.845c-3.126,0.99-6.25,2.151-9.289,3.451
			l-2-4.672C345.443,643.653,348.725,642.438,352.008,641.397z M328.676,652.03l2.646,4.337c-2.809,1.713-5.569,3.583-8.204,5.563
			l-3.053-4.065C322.831,655.79,325.729,653.825,328.676,652.03z M308.526,667.886l3.597,3.589
			c-2.326,2.331-4.567,4.801-6.661,7.346l-3.927-3.232C303.735,672.92,306.086,670.324,308.526,667.886z M292.682,688.056
			l4.345,2.64c-1.713,2.82-3.306,5.75-4.736,8.709l-4.575-2.208C289.215,694.086,290.887,691.012,292.682,688.056z M282.075,711.415
			l4.846,1.526c-0.992,3.139-1.839,6.365-2.519,9.588l-4.973-1.053C280.144,718.092,281.034,714.711,282.075,711.415z
			 M277.108,743.782c0-2.388,0.079-4.801,0.235-7.163l5.074,0.331c-0.15,2.255-0.226,4.555-0.226,6.832
			c0,1.034,0.016,2.063,0.045,3.084l-5.08,0.151C277.126,745.942,277.108,744.863,277.108,743.782z M280.957,772.377
			c-0.917-3.331-1.68-6.744-2.271-10.153l5.009-0.867c0.561,3.245,1.29,6.5,2.162,9.67L280.957,772.377z M290.694,796.104
			c-1.687-3.019-3.244-6.153-4.628-9.32l4.655-2.034c1.32,3.016,2.803,5.999,4.41,8.872L290.694,796.104z M305.782,816.833
			c-2.352-2.536-4.606-5.211-6.703-7.958l4.041-3.081c1.998,2.614,4.146,5.166,6.387,7.579L305.782,816.833z M325.34,833.423
			c-2.878-1.901-5.701-3.971-8.391-6.15l3.198-3.948c2.564,2.075,5.255,4.05,7.994,5.86L325.34,833.423z M348.275,844.91
			c-3.261-1.167-6.497-2.511-9.615-3.986l2.176-4.589c2.966,1.403,6.046,2.681,9.151,3.791L348.275,844.91z M373.296,850.598
			c-3.451-0.356-6.912-0.887-10.286-1.574l1.013-4.98c3.214,0.656,6.51,1.157,9.796,1.495L373.296,850.598z M388.568,851.099
			l-0.191-5.078c3.305-0.123,6.63-0.41,9.875-0.845l0.68,5.036C395.523,850.67,392.036,850.97,388.568,851.099z M413.894,847.1
			l-1.383-4.889c3.152-0.896,6.31-1.962,9.385-3.17l1.859,4.73C420.527,845.043,417.208,846.162,413.894,847.1z M437.537,837.183
			l-2.514-4.415c2.857-1.628,5.672-3.416,8.369-5.318l2.929,4.154C443.491,833.6,440.536,835.477,437.537,837.183z M458.151,821.933
			l-3.487-3.696c2.396-2.258,4.709-4.661,6.877-7.141l3.828,3.347C463.094,817.041,460.665,819.564,458.151,821.933z
			 M474.592,802.249l-4.261-2.767c1.798-2.77,3.479-5.652,4.994-8.566l4.51,2.347C478.243,796.322,476.479,799.344,474.592,802.249z
			 M469.255,753.947c-2.616,3.249-3.75,8.989-2.558,12.935c1.194,3.946,8.426,2.605,9.414,6.914
			c0.985,4.302-1.904,11.27-5.63,13.581c-3.728,2.313-7.901-3.744-11.553-1.77c-3.652,1.978-6.904,6.835-7.328,10.957
			c-0.424,4.12,6.778,5.644,6.048,9.983c-0.727,4.34-6.065,9.677-10.405,10.408c-4.34,0.729-5.867-6.476-9.984-6.053
			c-4.116,0.429-8.978,3.675-10.956,7.333c-1.976,3.652,4.08,7.825,1.77,11.547c-2.311,3.729-9.278,6.621-13.584,5.637
			c-4.305-0.987-2.966-8.22-6.912-9.418c-3.944-1.187-9.683-0.054-12.937,2.561c-3.252,2.618-0.74,8.93-2.784,11.346
			c-2.043,2.416-12.669,2.416-14.712,0c-2.044-2.416,0.468-8.728-2.787-11.346c-3.252-2.614-8.987-3.75-12.935-2.561
			c-3.944,1.198-2.607,8.431-6.911,9.418c-4.307,0.984-11.272-1.908-13.588-5.637c-2.31-3.722,3.749-7.895,1.772-11.547
			c-1.979-3.658-6.838-6.904-10.956-7.333c-4.118-0.423-5.644,6.781-9.982,6.053c-4.341-0.731-9.678-6.068-10.408-10.408
			c-0.727-4.34,6.474-5.863,6.048-9.983c-0.423-4.122-3.675-8.979-7.329-10.957c-3.652-1.975-7.825,4.082-11.552,1.77
			c-3.727-2.312-6.616-9.279-5.63-13.581c0.985-4.309,8.221-2.968,9.413-6.914c1.191-3.945,0.057-9.686-2.56-12.935
			c-2.616-3.255-8.931-0.744-11.343-2.788c-2.416-2.041-2.416-12.663,0-14.707c2.413-2.044,8.727,0.467,11.343-2.785
			c2.617-3.252,3.75-8.992,2.558-12.941c-1.194-3.942-8.426-2.605-9.412-6.91c-0.986-4.303,1.903-11.27,5.63-13.585
			c3.727-2.309,7.899,3.75,11.552,1.77c3.654-1.978,6.906-6.838,7.329-10.954c0.422-4.119-6.775-5.646-6.048-9.985
			c0.727-4.337,6.067-9.677,10.405-10.405c4.341-0.729,5.863,6.472,9.985,6.049c4.116-0.426,8.977-3.678,10.956-7.33
			c1.976-3.652-4.083-7.828-1.772-11.55c2.315-3.729,9.279-6.617,13.584-5.63c4.306,0.98,2.97,8.216,6.912,9.411
			c3.949,1.192,9.688,0.058,12.941-2.555c3.25-2.617,0.74-8.936,2.782-11.348c2.042-2.416,12.665-2.416,14.712,0
			c2.044,2.412-0.468,8.73,2.784,11.348c3.253,2.612,8.992,3.747,12.939,2.555c3.943-1.195,2.604-8.431,6.909-9.411
			c4.307-0.987,11.274,1.901,13.584,5.63c2.313,3.722-3.746,7.897-1.77,11.55c1.978,3.652,6.84,6.904,10.959,7.33
			c4.116,0.423,5.643-6.777,9.981-6.049c4.34,0.729,9.678,6.068,10.407,10.405c0.729,4.34-6.472,5.866-6.049,9.985
			c0.426,4.116,3.676,8.977,7.328,10.954c3.656,1.98,7.827-4.078,11.553-1.77c3.727,2.315,6.616,9.282,5.63,13.585
			c-0.984,4.305-8.22,2.968-9.414,6.91c-1.192,3.949-0.058,9.689,2.561,12.938c2.613,3.255,8.926,0.744,11.344,2.788
			c2.411,2.044,2.411,12.666,0,14.707C478.185,753.203,471.872,750.692,469.255,753.947z M485.902,779.221l-4.797-1.678
			c1.087-3.106,2.031-6.305,2.809-9.5l4.938,1.201C488.036,772.601,487.042,775.956,485.902,779.221z M486.332,753.686
			c0.315-3.265,0.475-6.602,0.475-9.903c0-2.044-0.063-4.12-0.183-6.163l5.072-0.303c0.128,2.145,0.192,4.32,0.192,6.466
			c0,3.466-0.166,6.961-0.495,10.389L486.332,753.686z"/>
		<circle fill-rule="evenodd" clip-rule="evenodd" cx="384.498" cy="743.807" r="81.343"/>
	</g>
	<g>
		<path fill-rule="evenodd" clip-rule="evenodd" d="M781.544,752.897c0.216-2.218,1.581-3.939,2.786-5.46
			c1.014-1.277,1.97-2.482,1.97-3.627c0-1.148-0.957-2.356-1.97-3.634c-1.205-1.521-2.57-3.242-2.786-5.457
			c-0.218-2.217,0.785-4.169,1.67-5.892c0.742-1.454,1.446-2.826,1.222-3.948c-0.224-1.126-1.396-2.123-2.64-3.177
			c-1.478-1.255-3.154-2.678-3.801-4.813c-0.645-2.133-0.042-4.242,0.489-6.106c0.447-1.571,0.869-3.05,0.432-4.11
			c-0.438-1.06-1.786-1.807-3.211-2.602c-1.695-0.943-3.616-2.009-4.664-3.975c-1.049-1.965-0.871-4.153-0.713-6.084
			c0.132-1.627,0.257-3.163-0.381-4.116c-0.637-0.952-2.104-1.425-3.655-1.924c-1.847-0.593-3.938-1.268-5.351-2.986
			c-1.413-1.723-1.664-3.905-1.887-5.832c-0.188-1.618-0.364-3.147-1.175-3.962c-0.812-0.808-2.342-0.983-3.961-1.173
			c-1.926-0.225-4.108-0.477-5.83-1.887c-1.723-1.416-2.395-3.504-2.987-5.349c-0.5-1.556-0.972-3.021-1.927-3.662
			c-0.504-0.334-1.177-0.485-2.187-0.485c-0.631,0-1.278,0.054-1.93,0.106c-0.754,0.063-1.511,0.123-2.247,0.123
			c-1.554,0-2.771-0.265-3.836-0.832c-1.965-1.051-3.032-2.969-3.976-4.665c-0.793-1.426-1.541-2.772-2.601-3.211
			c-0.985-0.407-2.495-0.028-4.108,0.429c-1.324,0.379-2.693,0.77-4.135,0.77c-0.695,0-1.359-0.095-1.975-0.28
			c-2.13-0.646-3.553-2.321-4.807-3.798c-1.057-1.242-2.055-2.416-3.181-2.64c-1.169-0.228-2.485,0.473-3.945,1.221
			c-1.713,0.88-3.703,1.889-5.896,1.672c-2.216-0.218-3.938-1.584-5.457-2.788c-1.277-1.013-2.484-1.969-3.632-1.969
			c-1.146,0-2.354,0.956-3.632,1.969c-1.519,1.204-3.241,2.57-5.455,2.788c-2.192,0.211-4.181-0.792-5.895-1.669
			c-1.458-0.751-2.764-1.447-3.949-1.224c-1.125,0.224-2.121,1.397-3.178,2.64c-1.253,1.477-2.678,3.151-4.808,3.798
			c-0.614,0.186-1.277,0.28-1.973,0.28c-1.441,0-2.81-0.391-4.133-0.77c-1.615-0.457-3.125-0.836-4.11-0.429
			c-1.06,0.441-1.809,1.785-2.602,3.214c-0.941,1.693-2.011,3.611-3.974,4.662c-1.064,0.567-2.284,0.832-3.835,0.832
			c-0.738,0-1.493-0.06-2.249-0.123c-0.65-0.053-1.298-0.106-1.929-0.106c-1.009,0-1.683,0.151-2.188,0.485
			c-0.953,0.641-1.425,2.106-1.924,3.662c-0.596,1.845-1.268,3.933-2.989,5.346c-1.722,1.413-3.904,1.665-5.83,1.89
			c-1.621,0.189-3.151,0.365-3.963,1.173c-0.808,0.811-0.986,2.341-1.172,3.959c-0.223,1.93-0.475,4.112-1.888,5.835
			c-1.413,1.719-3.504,2.394-5.351,2.986c-1.552,0.499-3.018,0.972-3.655,1.924c-0.636,0.953-0.511,2.489-0.378,4.116
			c0.156,1.931,0.334,4.123-0.713,6.084c-1.05,1.962-2.971,3.031-4.664,3.975c-1.425,0.792-2.774,1.542-3.21,2.602
			c-0.438,1.061-0.018,2.539,0.43,4.11c0.53,1.864,1.132,3.978,0.486,6.106c-0.646,2.135-2.321,3.558-3.799,4.813
			c-1.243,1.054-2.416,2.051-2.64,3.177c-0.224,1.122,0.479,2.494,1.224,3.945c0.885,1.722,1.888,3.678,1.67,5.895
			c-0.218,2.215-1.583,3.937-2.787,5.457c-1.016,1.277-1.973,2.485-1.973,3.634c0,1.145,0.958,2.35,1.97,3.627
			c1.207,1.521,2.572,3.242,2.79,5.46c0.217,2.217-0.786,4.173-1.672,5.897c-0.743,1.451-1.444,2.82-1.222,3.942
			c0.224,1.126,1.399,2.126,2.643,3.183c1.476,1.256,3.149,2.675,3.796,4.807c0.646,2.129,0.044,4.242-0.486,6.106
			c-0.448,1.571-0.869,3.05-0.43,4.11c0.437,1.06,1.783,1.807,3.209,2.599c1.694,0.943,3.615,2.012,4.664,3.978
			c1.052,1.961,0.872,4.153,0.714,6.087c-0.133,1.624-0.257,3.16,0.378,4.113c0.637,0.952,2.104,1.425,3.655,1.924
			c1.847,0.593,3.938,1.268,5.351,2.986c1.413,1.723,1.665,3.905,1.888,5.832c0.186,1.621,0.364,3.151,1.173,3.962
			c0.811,0.811,2.342,0.987,3.961,1.176c1.926,0.221,4.108,0.474,5.83,1.89c1.721,1.41,2.394,3.498,2.989,5.343
			c0.499,1.556,0.971,3.021,1.925,3.662c0.503,0.334,1.178,0.485,2.186,0.482c0.631,0,1.279-0.054,1.929-0.107
			c0.754-0.063,1.511-0.119,2.247-0.119c1.552,0,2.772,0.265,3.837,0.832c1.963,1.051,3.033,2.969,3.974,4.662
			c0.793,1.429,1.542,2.772,2.602,3.214c0.984,0.407,2.494,0.028,4.107-0.433c1.325-0.378,2.695-0.766,4.136-0.766
			c0.696,0,1.359,0.095,1.976,0.28c2.131,0.644,3.552,2.321,4.805,3.798c1.057,1.246,2.053,2.419,3.176,2.64
			c1.197,0.23,2.492-0.473,3.952-1.224c1.553-0.795,3.312-1.7,5.276-1.7c0.204,0,0.41,0.01,0.617,0.031
			c2.216,0.218,3.937,1.584,5.455,2.788c1.279,1.013,2.485,1.972,3.632,1.972s2.353-0.959,3.632-1.972
			c1.519-1.204,3.243-2.57,5.458-2.788c2.186-0.214,4.179,0.789,5.894,1.669c1.46,0.751,2.766,1.447,3.947,1.224
			c1.126-0.224,2.122-1.394,3.179-2.64c1.254-1.477,2.678-3.154,4.809-3.798c0.613-0.186,1.277-0.28,1.973-0.28
			c1.441,0,2.813,0.388,4.137,0.766c1.613,0.458,3.122,0.833,4.108,0.433c1.058-0.438,1.806-1.785,2.599-3.211
			c0.943-1.696,2.011-3.614,3.978-4.665c1.063-0.567,2.283-0.832,3.835-0.832c0.736,0,1.493,0.057,2.247,0.119
			c0.651,0.054,1.3,0.107,1.929,0.107c1.01,0,1.685-0.148,2.189-0.485c0.952-0.638,1.424-2.104,1.924-3.659
			c0.593-1.842,1.267-3.933,2.987-5.346c1.722-1.413,3.904-1.666,5.83-1.887c1.619-0.188,3.149-0.365,3.96-1.176
			c0.812-0.814,0.988-2.341,1.176-3.959c0.223-1.93,0.475-4.112,1.89-5.835c1.41-1.719,3.503-2.394,5.348-2.986
			c1.552-0.502,3.019-0.972,3.655-1.924c0.638-0.956,0.513-2.489,0.381-4.116c-0.158-1.931-0.336-4.123,0.714-6.084
			c1.049-1.966,2.97-3.034,4.665-3.978c1.424-0.792,2.771-1.542,3.209-2.603c0.438-1.053,0.015-2.535-0.432-4.104
			c-0.531-1.867-1.136-3.98-0.489-6.109c0.648-2.132,2.321-3.551,3.798-4.807c1.244-1.057,2.419-2.057,2.643-3.183
			c0.225-1.122-0.479-2.494-1.222-3.945C782.329,757.07,781.326,755.114,781.544,752.897z M767.477,782.526H611.056
			c-5.788-11.67-9.059-24.81-9.059-38.72c0-13.906,3.271-27.049,9.059-38.716h156.419c5.789,11.667,9.059,24.81,9.059,38.716
			C776.533,757.717,773.264,770.856,767.477,782.526z"/>
		<path fill-rule="evenodd" clip-rule="evenodd" d="M689.265,634.182c-60.545,0-109.627,49.08-109.627,109.625
			c0,60.546,49.082,109.626,109.627,109.626s109.627-49.08,109.627-109.626C798.893,683.262,749.811,634.182,689.265,634.182z
			 M788.098,763.466c-0.477,2.403-2.288,3.943-3.888,5.299c-1.188,1.013-2.313,1.969-2.642,3.044
			c-0.326,1.082,0.079,2.498,0.508,4.003c0.574,2.016,1.226,4.299,0.291,6.557c-0.938,2.265-3.014,3.419-4.845,4.438
			c-1.364,0.76-2.654,1.476-3.186,2.473c-0.533,0.996-0.413,2.466-0.287,4.024c0.17,2.088,0.362,4.457-0.997,6.491
			c-1.361,2.034-3.622,2.763-5.617,3.403c-1.485,0.479-2.89,0.931-3.604,1.801c-0.718,0.874-0.888,2.34-1.067,3.892
			c-0.241,2.082-0.513,4.441-2.244,6.173c-1.73,1.731-4.091,2.006-6.173,2.242c-1.552,0.184-3.017,0.351-3.889,1.066
			s-1.323,2.119-1.803,3.605c-0.642,1.996-1.369,4.258-3.403,5.617c-1.5,1.003-3.152,1.116-4.265,1.116
			c-0.729,0-1.479-0.057-2.231-0.119c-0.652-0.054-1.307-0.107-1.944-0.107c-0.914,0-1.575,0.123-2.077,0.394
			c-0.995,0.53-1.712,1.82-2.471,3.183c-1.019,1.833-2.175,3.911-4.435,4.845c-0.756,0.315-1.588,0.474-2.475,0.474
			c-1.418,0-2.773-0.389-4.086-0.761c-1.534-0.438-2.995-0.813-4.003-0.505c-1.078,0.328-2.034,1.451-3.045,2.644
			c-1.357,1.596-2.897,3.409-5.297,3.886c-2.325,0.464-4.532-0.618-6.38-1.564c-1.394-0.716-2.679-1.365-3.824-1.277
			c-1.123,0.11-2.281,1.028-3.504,2c-1.642,1.303-3.504,2.778-5.952,2.778c-2.447,0-4.31-1.476-5.952-2.778
			c-1.224-0.972-2.38-1.89-3.501-2c-1.126-0.088-2.43,0.562-3.824,1.277c-1.849,0.946-4.036,2.037-6.382,1.562
			c-2.4-0.474-3.938-2.287-5.295-3.883c-1.01-1.192-1.964-2.315-3.044-2.644c-1.011-0.309-2.47,0.066-4.004,0.505
			c-1.313,0.372-2.668,0.761-4.084,0.761c-0.886,0-1.719-0.158-2.473-0.474c-2.265-0.934-3.419-3.012-4.439-4.845
			c-0.759-1.365-1.475-2.655-2.47-3.183c-0.5-0.271-1.163-0.394-2.077-0.394c-0.637,0-1.292,0.054-1.944,0.107
			c-0.752,0.063-1.503,0.119-2.231,0.119c-1.112,0.003-2.763-0.113-4.261-1.116c-2.034-1.356-2.763-3.621-3.406-5.614
			c-0.478-1.489-0.931-2.893-1.803-3.605c-0.872-0.719-2.337-0.886-3.889-1.069c-2.083-0.239-4.444-0.511-6.176-2.242
			c-1.729-1.734-2-4.091-2.239-6.176c-0.18-1.552-0.351-3.015-1.066-3.889c-0.714-0.87-2.119-1.321-3.605-1.801
			c-1.997-0.641-4.258-1.369-5.619-3.403c-1.359-2.034-1.165-4.403-0.995-6.491c0.126-1.559,0.248-3.028-0.285-4.024
			c-0.533-0.994-1.822-1.713-3.187-2.473c-1.831-1.02-3.908-2.174-4.843-4.435c-0.938-2.262-0.287-4.545,0.289-6.561
			c0.427-1.505,0.831-2.921,0.505-4.003c-0.328-1.075-1.451-2.031-2.64-3.044c-1.599-1.355-3.411-2.898-3.889-5.302
			c-0.476-2.396,0.607-4.507,1.564-6.374c0.713-1.388,1.386-2.7,1.276-3.826c-0.11-1.123-1.028-2.28-1.998-3.504
			c-1.303-1.644-2.779-3.501-2.779-5.948c0-2.448,1.476-4.312,2.779-5.955c0.97-1.224,1.888-2.382,1.998-3.501
			c0.11-1.123-0.562-2.436-1.276-3.823c-0.957-1.867-2.041-3.98-1.564-6.38c0.478-2.4,2.29-3.939,3.886-5.296
			c1.191-1.013,2.315-1.969,2.644-3.047c0.326-1.082-0.078-2.498-0.506-4.003c-0.574-2.016-1.226-4.299-0.287-6.561
			c0.935-2.261,3.012-3.419,4.845-4.438c1.364-0.757,2.654-1.476,3.186-2.47c0.53-0.993,0.412-2.463,0.284-4.021
			c-0.168-2.091-0.363-4.46,0.997-6.494c1.36-2.034,3.623-2.763,5.619-3.406c1.486-0.477,2.891-0.931,3.607-1.801
			c0.714-0.871,0.884-2.337,1.064-3.889c0.239-2.082,0.511-4.441,2.239-6.173c1.733-1.729,4.092-2.003,6.174-2.242
			c1.552-0.181,3.019-0.351,3.891-1.066s1.325-2.12,1.803-3.608c0.642-1.99,1.37-4.255,3.403-5.614
			c1.5-1.003,3.152-1.119,4.264-1.119c0.729,0,1.479,0.06,2.233,0.122c0.653,0.054,1.308,0.107,1.944,0.107
			c0.915,0,1.576-0.123,2.077-0.391c0.994-0.53,1.709-1.82,2.468-3.186c1.02-1.833,2.174-3.911,4.438-4.845
			c0.755-0.315,1.588-0.474,2.478-0.474c1.418,0,2.772,0.385,4.084,0.761c1.531,0.435,2.988,0.813,3.998,0.505
			c1.082-0.332,2.036-1.454,3.047-2.644c1.357-1.596,2.895-3.406,5.294-3.883c2.353-0.47,4.534,0.615,6.382,1.562
			c1.392,0.713,2.673,1.369,3.826,1.277c1.121-0.11,2.277-1.028,3.501-1.996c1.644-1.307,3.504-2.779,5.952-2.779
			c2.449,0,4.31,1.473,5.952,2.779c1.224,0.968,2.38,1.886,3.503,1.996c1.142,0.095,2.434-0.564,3.825-1.277
			c1.848-0.946,4.034-2.031,6.38-1.562c2.399,0.477,3.938,2.287,5.295,3.883c1.012,1.189,1.966,2.312,3.046,2.644
			c1.012,0.306,2.468-0.07,4.002-0.505c1.311-0.376,2.669-0.761,4.085-0.761c0.888,0,1.722,0.158,2.479,0.474
			c2.259,0.934,3.415,3.012,4.434,4.845c0.759,1.365,1.476,2.655,2.47,3.186c0.501,0.268,1.16,0.391,2.077,0.391
			c0.637,0,1.29-0.054,1.944-0.107c0.752-0.063,1.503-0.122,2.232-0.122c1.112,0,2.764,0.116,4.263,1.119
			c2.036,1.359,2.764,3.624,3.405,5.617c0.478,1.485,0.931,2.89,1.803,3.605s2.337,0.886,3.889,1.066
			c2.082,0.239,4.441,0.514,6.173,2.242c1.731,1.731,2.003,4.091,2.244,6.173c0.178,1.552,0.349,3.018,1.063,3.889
			c0.716,0.873,2.121,1.324,3.606,1.804c1.997,0.641,4.258,1.369,5.619,3.403s1.167,4.403,0.997,6.494
			c-0.126,1.556-0.248,3.028,0.283,4.021c0.533,0.994,1.822,1.713,3.188,2.47c1.831,1.019,3.908,2.177,4.847,4.438
			c0.935,2.265,0.283,4.545-0.291,6.561c-0.429,1.505-0.832,2.921-0.506,4.003c0.326,1.078,1.452,2.034,2.644,3.047
			c1.597,1.356,3.407,2.896,3.886,5.296c0.478,2.399-0.607,4.513-1.564,6.38c-0.713,1.388-1.385,2.7-1.276,3.823
			c0.11,1.123,1.028,2.28,1.998,3.504c1.302,1.641,2.777,3.504,2.777,5.952c0,2.447-1.475,4.305-2.777,5.948
			c-0.97,1.224-1.888,2.381-1.998,3.504c-0.108,1.123,0.563,2.436,1.277,3.823C787.492,758.953,788.577,761.066,788.098,763.466z"/>
	</g>
	<g>
		<path fill-rule="evenodd" clip-rule="evenodd" d="M992.938,629.927c-62.894,0-113.879,50.985-113.879,113.88
			c0,62.896,50.985,113.881,113.879,113.881s113.879-50.985,113.879-113.881C1106.817,680.912,1055.832,629.927,992.938,629.927z
			 M1099.88,732.329l-9.942,1.057c-0.111-1.054-0.24-2.104-0.386-3.147l9.905-1.375
			C1099.616,730.011,1099.758,731.169,1099.88,732.329z M1097.555,718.771l-9.725,2.321c-0.246-1.028-0.508-2.054-0.786-3.072
			l9.646-2.637C1096.995,716.506,1097.284,717.632,1097.555,718.771z M1093.509,705.617l-9.349,3.552
			c-0.376-0.987-0.766-1.962-1.171-2.933l9.228-3.854C1092.665,703.451,1093.094,704.529,1093.509,705.617z M1087.808,693.103
			l-8.814,4.722c-0.498-0.928-1.013-1.852-1.539-2.764l8.656-5.002C1086.692,691.062,1087.259,692.077,1087.808,693.103z
			 M1078.48,678.612c0.705,0.925,1.397,1.861,2.072,2.808l-8.139,5.81c-0.615-0.861-1.241-1.713-1.883-2.552L1078.48,678.612z
			 M1069.455,668.229c0.819,0.829,1.623,1.672,2.416,2.523l-7.338,6.797c-0.717-0.776-1.445-1.539-2.188-2.29L1069.455,668.229z
			 M1059.185,659.076c0.918,0.716,1.824,1.454,2.719,2.202l-6.417,7.667c-0.811-0.678-1.633-1.341-2.465-1.996L1059.185,659.076z
			 M1047.831,651.302c1.002,0.596,1.992,1.211,2.973,1.836l-5.377,8.427c-0.893-0.57-1.797-1.126-2.71-1.668L1047.831,651.302z
			 M1035.568,645.038c1.072,0.463,2.139,0.945,3.19,1.441l-4.263,9.046c-0.957-0.448-1.923-0.884-2.897-1.307L1035.568,645.038z
			 M1022.605,640.404c1.124,0.321,2.239,0.662,3.348,1.016l-3.067,9.519c-1.005-0.324-2.014-0.631-3.027-0.917L1022.605,640.404z
			 M1009.158,637.475c1.157,0.173,2.307,0.368,3.452,0.58l-1.822,9.831c-1.034-0.192-2.075-0.366-3.12-0.523L1009.158,637.475z
			 M995.463,636.288c1.165,0.028,2.328,0.073,3.483,0.136l-0.544,9.982c-1.054-0.057-2.111-0.101-3.175-0.123L995.463,636.288z
			 M985.198,636.534l0.716,9.974c-1.06,0.075-2.113,0.167-3.164,0.274l-1.026-9.945
			C982.877,636.714,984.034,636.616,985.198,636.534z M971.571,638.383l1.974,9.803c-1.037,0.208-2.07,0.436-3.097,0.675l-2.29-9.73
			C969.287,638.858,970.428,638.613,971.571,638.383z M958.278,641.969l3.229,9.462c-1.005,0.344-2.001,0.697-2.99,1.072
			l-3.522-9.361C956.081,642.735,957.176,642.344,958.278,641.969z M945.564,647.227l4.414,8.974
			c-0.948,0.467-1.885,0.946-2.815,1.438l-4.701-8.821C943.485,648.271,944.521,647.737,945.564,647.227z M933.644,654.067
			l5.512,8.343c-0.88,0.58-1.749,1.177-2.61,1.785l-5.783-8.153C931.71,655.367,932.669,654.711,933.644,654.067z M922.678,662.379
			l6.537,7.566c-0.801,0.69-1.59,1.395-2.365,2.11l-6.776-7.353C920.93,663.911,921.797,663.139,922.678,662.379z M912.866,672.008
			l7.434,6.684c-0.703,0.785-1.396,1.583-2.075,2.391l-7.654-6.431C911.322,673.756,912.087,672.872,912.866,672.008z
			 M904.346,682.817l8.23,5.674c-0.6,0.867-1.187,1.75-1.759,2.643l-8.412-5.405C903.036,684.744,903.685,683.772,904.346,682.817z
			 M897.271,694.623l8.892,4.576c-0.484,0.939-0.956,1.89-1.408,2.845l-9.036-4.283C896.219,696.704,896.737,695.66,897.271,694.623
			z M891.766,707.242l9.405,3.4c-0.361,0.993-0.705,1.999-1.033,3.009l-9.508-3.091C890.991,709.446,891.369,708.34,891.766,707.242
			z M887.929,720.47l9.763,2.161c-0.227,1.028-0.438,2.065-0.634,3.106l-9.828-1.845
			C887.444,722.747,887.678,721.605,887.929,720.47z M885.824,734.064l9.958,0.896c-0.095,1.047-0.171,2.104-0.23,3.16l-9.982-0.567
			C885.636,736.383,885.721,735.219,885.824,734.064z M885.462,747.813l9.992-0.372c0.039,1.06,0.096,2.119,0.167,3.173
			l-9.977,0.682C885.566,750.141,885.506,748.979,885.462,747.813z M886.837,761.495l9.868-1.631
			c0.172,1.047,0.36,2.082,0.565,3.116l-9.808,1.952C887.237,763.791,887.028,762.646,886.837,761.495z M889.95,774.896l9.577-2.88
			c0.305,1.013,0.626,2.016,0.962,3.013l-9.473,3.204C890.645,777.13,890.289,776.017,889.95,774.896z M894.765,787.79l9.128-4.087
			c0.431,0.962,0.877,1.911,1.336,2.857l-8.982,4.387C895.736,789.903,895.241,788.854,894.765,787.79z M901.189,799.952
			l8.524-5.229c0.552,0.902,1.119,1.792,1.698,2.675l-8.351,5.494C902.421,801.924,901.799,800.942,901.189,799.952z
			 M911.346,813.878c-0.759-0.887-1.505-1.779-2.234-2.688l7.79-6.268c0.663,0.82,1.338,1.634,2.025,2.433L911.346,813.878z
			 M920.956,823.715c-0.864-0.779-1.718-1.573-2.557-2.378l6.93-7.213c0.764,0.734,1.536,1.457,2.321,2.163L920.956,823.715z
			 M931.744,832.263c-0.962-0.669-1.911-1.35-2.848-2.047l5.971-8.018c0.844,0.628,1.701,1.242,2.569,1.842L931.744,832.263z
			 M943.533,839.359c-1.036-0.536-2.064-1.088-3.082-1.659l4.891-8.724c0.923,0.517,1.854,1.019,2.795,1.507L943.533,839.359z
			 M956.15,844.897c-1.102-0.4-2.195-0.819-3.28-1.255l3.731-9.276c0.979,0.395,1.969,0.772,2.962,1.136L956.15,844.897z
			 M969.358,848.762c-1.144-0.256-2.277-0.53-3.405-0.82l2.51-9.68c1.019,0.265,2.044,0.511,3.075,0.741L969.358,848.762z
			 M982.944,850.896c-1.16-0.107-2.316-0.233-3.47-0.375l1.233-9.926c1.048,0.133,2.101,0.243,3.157,0.344L982.944,850.896z
			 M993.192,851.351l-0.013-9.995c1.06,0,2.116-0.021,3.168-0.057l0.339,9.992C995.526,851.329,994.362,851.351,993.192,851.351z
			 M1006.917,850.455l-1.285-9.916c1.049-0.136,2.093-0.29,3.13-0.461l1.617,9.869
			C1009.232,850.137,1008.076,850.304,1006.917,850.455z M1020.419,847.813l-2.543-9.671c1.021-0.271,2.039-0.555,3.048-0.857
			l2.862,9.578C1022.672,847.197,1021.549,847.516,1020.419,847.813z M1033.476,843.453l-3.772-9.26
			c0.979-0.397,1.944-0.811,2.903-1.24l4.077,9.131C1035.623,842.558,1034.555,843.012,1033.476,843.453z M1028.764,830.291
			l-19.308-3.45l-16.518,10.579l-16.515-10.579l-19.31,3.45l-11.206-16.095l-19.164-4.198l-4.197-19.158l-16.092-11.209l3.451-19.31
			l-10.581-16.515l10.581-16.518l-3.451-19.303l16.092-11.213l4.197-19.157l19.159-4.198l11.211-16.096l19.31,3.454l16.515-10.579
			l16.513,10.579l19.313-3.454l11.209,16.096l19.16,4.198l4.193,19.157l16.096,11.213l-3.453,19.303l10.58,16.518l-10.58,16.515
			l3.453,19.31l-16.092,11.209l-4.197,19.158l-19.16,4.198L1028.764,830.291z M1045.855,837.457l-4.937-8.695
			c0.921-0.521,1.834-1.057,2.735-1.608l5.202,8.541C1047.867,836.297,1046.868,836.883,1045.855,837.457z M1057.361,829.935
			l-5.996-8.005c0.847-0.634,1.682-1.28,2.505-1.939l6.249,7.807C1059.211,828.525,1058.292,829.234,1057.361,829.935z
			 M1067.818,821.006l-6.958-7.179c0.757-0.735,1.503-1.482,2.236-2.242l7.191,6.945
			C1069.48,819.369,1068.656,820.192,1067.818,821.006z M1077.062,810.821l-7.811-6.245c0.657-0.82,1.302-1.662,1.933-2.504
			l8.018,5.974C1078.503,808.985,1077.789,809.91,1077.062,810.821z M1084.942,799.533l-8.55-5.188
			c0.551-0.902,1.082-1.817,1.603-2.741l8.713,4.908C1086.136,797.527,1085.546,798.536,1084.942,799.533z M1091.314,787.327
			l-9.145-4.044c0.43-0.969,0.842-1.946,1.242-2.927l9.269,3.75C1092.244,785.191,1091.786,786.264,1091.314,787.327z
			 M1096.066,774.411l-9.582-2.849c0.298-1.009,0.582-2.024,0.847-3.047l9.677,2.523
			C1096.713,772.168,1096.4,773.294,1096.066,774.411z M1099.121,760.987l-9.872-1.58c0.165-1.044,0.316-2.088,0.451-3.139
			l9.919,1.262C1099.471,758.688,1099.306,759.842,1099.121,760.987z M1090.437,746.98c0.034-1.051,0.05-2.11,0.05-3.174
			l-0.004-1.122l9.996-0.104l0.008,1.227c0,1.167-0.019,2.328-0.055,3.488L1090.437,746.98z"/>
		<path fill-rule="evenodd" clip-rule="evenodd" d="M914.657,743.807c0,17.294,5.617,33.263,15.111,46.217h126.341
			c9.492-12.954,15.111-28.923,15.111-46.217c0-17.29-5.618-33.263-15.111-46.216H929.767
			C920.274,710.544,914.657,726.517,914.657,743.807z"/>
	</g>
</g>
</svg>
