<?xml version="1.0" ?><!DOCTYPE svg  PUBLIC '-//W3C//DTD SVG 1.1//EN'  'http://www.w3.org/Graphics/SVG/1.1/DTD/svg11.dtd'><svg height="174px" style="enable-background:new 0 0 168 174;" version="1.1" viewBox="0 0 168 174" width="168px" xml:space="preserve" xmlns="http://www.w3.org/2000/svg" xmlns:xlink="http://www.w3.org/1999/xlink"><style type="text/css">
<![CDATA[
	.st0{fill:#EF3E42;}
	.st1{fill:#54B948;}
	.st2{fill:#FFC425;}
	.st3{fill:#FFFFFF;}
	.st4{fill:none;}
]]>
</style><defs/><polygon class="st0" points="18.3,19.7 152.2,19.7 152.2,153.6 18.3,153.6 18.3,19.7 "/><path class="st3" d="M141.4,80.7v4.9h-12.6v8.9l-13.8,0l0,9.3h-13.8l0,9.4H87.6l0,9.4H73.8l0,9.4l-44.6,0V127h39.7l0-9.4h13.8l0-9.4  h13.8v-9.4h13.8l0-9.3l13.8,0v-8.9H141.4L141.4,80.7z M114.1,67.5l-8.2,0c-1.3,0-1.9-0.3-2.7-1.4c-0.8-1.1-3.4-4.6-3.4-4.6l-3.6,8.3  l9.7,21.8c0.1,0.3,0.2,0.6,0.2,0.9c0,1.5-1.2,2.7-2.7,2.7c-1,0-2-0.6-2.4-1.4L91,73l-0.8,9.2c-0.2,2.2-1.5,3.3-3.6,3.3h-10  c-1.5,0-2.7-1.2-2.7-2.7c0-1.5,1.2-2.7,2.7-2.7h7.7l0.6-8.6c0.3-3.7,1-5.3,1.8-7.2l2.7-6.2h-5l-3.9,6.4c-0.4,0.7-1.2,1.3-2.1,1.3  c-1.3,0-2.4-1.1-2.4-2.4c0-0.4,0.1-0.7,0.3-1c0.8-1.6,2.9-5.4,4-7.3c1.1-1.9,3.1-2.4,5.5-2.4h10.6c2.9,0,5,1.9,6,3.4  c1,1.5,4.4,6.5,4.4,6.5h7.2c1.4,0,2.5,1.1,2.5,2.5C116.6,66.4,115.5,67.5,114.1,67.5L114.1,67.5z M104.6,46.2c0,2.7-2.2,4.9-4.9,4.9  c-2.7,0-4.9-2.2-4.9-4.9c0-2.7,2.2-4.9,4.9-4.9C102.4,41.3,104.6,43.5,104.6,46.2L104.6,46.2z M48.7,97c0,0-8.6,7.4-8.6,15.8  c0,3.8,2.4,7,5.7,8.2c-1.2-0.9-1.9-2.3-1.9-3.9c0-4.8,4.8-8.9,4.8-8.9s4.9,4.2,4.9,8.9c0,1.6-0.8,3.1-1.9,4c3.4-1.2,5.7-4.4,5.7-8.3  C57.4,104.4,48.7,97,48.7,97L48.7,97z M48.6,85.2c0,0,14,11.8,14,25.4c0,7.7-6,14-13.8,14c-7.7,0-14-6.3-14-14  C34.9,97,48.6,85.2,48.6,85.2L48.6,85.2z"/><path d="M161.2,10.1c0.3,0,0.6,0.3,0.6,0.6v151.8c0,0.3-0.3,0.6-0.6,0.6H9.4c-0.3,0-0.6-0.3-0.6-0.6V10.7c0-0.3,0.3-0.6,0.6-0.6  H161.2L161.2,10.1z M160.6,11.3H10v150.6h150.6V11.3L160.6,11.3z"/><rect class="st4" height="174" id="_x3C_Slice_x3E__48_" width="168"/></svg>