<?xml version="1.0" ?><!DOCTYPE svg  PUBLIC '-//W3C//DTD SVG 1.1//EN'  'http://www.w3.org/Graphics/SVG/1.1/DTD/svg11.dtd'><svg height="170px" style="enable-background:new 0 0 171 170;" version="1.1" viewBox="0 0 171 170" width="171px" xml:space="preserve" xmlns="http://www.w3.org/2000/svg" xmlns:xlink="http://www.w3.org/1999/xlink"><style type="text/css">
<![CDATA[
	.st0{fill:#EF3E42;}
	.st1{fill:#54B948;}
	.st2{fill:#FFC425;}
	.st3{fill:#FFFFFF;}
	.st4{fill:none;}
]]>
</style><defs/><polygon class="st1" points="16.8,16.3 150.6,16.3 150.6,150.2 16.8,150.2 16.8,16.3 "/><path class="st3" d="M49.9,53.1v67.3H39.1c-3.6,0-6.6-2.9-6.6-6.5V59.7c0-3.6,3-6.6,6.6-6.6H49.9L49.9,53.1L49.9,53.1z M112.8,53.1  v67.3H54.7V53.1H112.8L112.8,53.1L112.8,53.1z M128.2,53.1c3.6,0,6.6,2.9,6.6,6.6v54.2c0,3.6-2.9,6.5-6.6,6.5h-10.5V53.1H128.2  L128.2,53.1L128.2,53.1z M97.7,43.6v7.2h-4.4v-5.1c0-1.3-1.1-2.4-2.4-2.4H76.4c-1.3,0-2.4,1.1-2.4,2.4v5.1h-4.2v-7.2  c0-2.4,1.9-4.4,4.3-4.4h19.2C95.8,39.2,97.7,41.2,97.7,43.6L97.7,43.6L97.7,43.6z"/><path d="M159.6,6.8c0.3,0,0.6,0.3,0.6,0.6v151.8c0,0.3-0.3,0.6-0.6,0.6H7.8c-0.3,0-0.6-0.3-0.6-0.6V7.3c0-0.3,0.3-0.6,0.6-0.6H159.6  L159.6,6.8z M159,7.9H8.4v150.6H159V7.9L159,7.9z"/><rect class="st4" height="170" id="_x3C_Slice_x3E__48_" width="171"/></svg>