<?xml version="1.0" ?><!DOCTYPE svg  PUBLIC '-//W3C//DTD SVG 1.1//EN'  'http://www.w3.org/Graphics/SVG/1.1/DTD/svg11.dtd'><svg height="171px" style="enable-background:new 0 0 171 171;" version="1.1" viewBox="0 0 171 171" width="171px" xml:space="preserve" xmlns="http://www.w3.org/2000/svg" xmlns:xlink="http://www.w3.org/1999/xlink"><style type="text/css">
<![CDATA[
	.st0{fill:#EF3E42;}
	.st1{fill:#54B948;}
	.st2{fill:#FFC425;}
	.st3{fill:#FFFFFF;}
	.st4{fill:none;}
]]>
</style><defs/><polygon class="st1" points="16.8,18.7 150.6,18.7 150.6,152.6 16.8,152.6 16.8,18.7 "/><path class="st3" d="M83.7,33.5c28.8,0,52.1,23.3,52.1,52.1s-23.4,52.1-52.1,52.1c-28.8,0-52.1-23.3-52.1-52.1S54.9,33.5,83.7,33.5  L83.7,33.5z M83.7,115c16.2,0,29.3-13.1,29.3-29.3S99.9,56.3,83.7,56.3c-16.2,0-29.3,13.1-29.3,29.3S67.5,115,83.7,115L83.7,115z   M70.7,113.6c-6.6-3.1-11.9-8.4-15-15l-14.5,14.5c3.9,6,9,11.1,15,15L70.7,113.6L70.7,113.6z M126.2,58.1c-3.9-6-9-11.1-15-15  L96.7,57.7c6.6,3.1,11.9,8.4,15,15L126.2,58.1L126.2,58.1z M111.7,98.7c-3.1,6.6-8.4,11.9-15,15l14.5,14.5c6-3.9,11.1-9,15-15  L111.7,98.7L111.7,98.7z M56.1,43.2c-6,3.9-11.1,9-15,15l14.5,14.5c3.1-6.6,8.4-11.9,15-15L56.1,43.2L56.1,43.2z M130,55.8v-3.7  c0-7-5.7-12.8-12.8-12.8h-3.7c-2.1-1.4-4.3-2.6-6.6-3.6h10.2c9.1,0,16.4,7.3,16.4,16.4v10.2C132.5,60.1,131.3,57.9,130,55.8  L130,55.8z M113.5,131.9h3.7c7,0,12.8-5.7,12.8-12.8v-3.7c1.4-2.1,2.6-4.3,3.6-6.6v10.3c0,9.1-7.3,16.4-16.4,16.4h-10.3  C109.2,134.5,111.4,133.3,113.5,131.9L113.5,131.9z M37.4,115.5v3.7c0,7,5.7,12.8,12.8,12.8h3.7c2.1,1.4,4.3,2.6,6.6,3.6H50.2  c-9.1,0-16.4-7.3-16.4-16.4v-10.2C34.8,111.2,36.1,113.4,37.4,115.5L37.4,115.5z M50.2,39.4c-7,0-12.8,5.7-12.8,12.8v3.7  c-1.4,2.1-2.6,4.3-3.6,6.6V52.1c0-9.1,7.3-16.4,16.4-16.4h10.2c-2.3,1.1-4.5,2.3-6.6,3.6H50.2L50.2,39.4z"/><path d="M160.2,9.2v153H7.2V9.2H160.2L160.2,9.2z M159,10.3H8.4v150.6H159V10.3L159,10.3z"/><rect class="st4" height="171" id="_x3C_Slice_x3E__48_" width="171"/></svg>