<?xml version="1.0" ?><!DOCTYPE svg  PUBLIC '-//W3C//DTD SVG 1.1//EN'  'http://www.w3.org/Graphics/SVG/1.1/DTD/svg11.dtd'><svg height="170px" style="enable-background:new 0 0 173 170;" version="1.1" viewBox="0 0 173 170" width="173px" xml:space="preserve" xmlns="http://www.w3.org/2000/svg" xmlns:xlink="http://www.w3.org/1999/xlink"><style type="text/css">
<![CDATA[
	.st0{fill:#EF3E42;}
	.st1{fill:#54B948;}
	.st2{fill:#FFC425;}
	.st3{fill:#FFFFFF;}
	.st4{fill:none;}
]]>
</style><defs/><polygon class="st0" points="22.5,14.7 156.4,14.7 156.4,148.6 22.5,148.6 22.5,14.7 "/><path class="st3" d="M145.6,76.9v4.9h-38.5v8.9l-13.8,0l0,9.3H79.6l0,9.4H65.8l0,9.4H52l0,9.4l-18.7,0v-4.9h13.8l0-9.4h13.8l0-9.4  h13.8v-9.4h13.8l0-9.3l13.8,0v-8.9h17.5H145.6L145.6,76.9z M43.5,73c-1.4,0-2.5-1.1-2.5-2.5c0-1.4,1.1-2.5,2.5-2.5h7.2  c0,0,3.3-5,4.4-6.5c1-1.5,3-3.4,6-3.4h10.6c2.5,0,4.4,0.6,5.5,2.4c1.1,1.9,3.2,5.7,4,7.2c0.2,0.3,0.3,0.7,0.3,1  c0,1.3-1.1,2.4-2.4,2.4c-0.9,0-1.7-0.5-2.1-1.3l-3.9-6.4h-5l2.7,6.2c0.9,2,1.6,3.6,1.8,7.2l0.6,8.6h7.7c1.5,0,2.7,1.2,2.7,2.7  c0,1.5-1.2,2.7-2.7,2.7H71c-2.1,0-3.4-1.2-3.6-3.3l-0.8-9.2l-9.9,20.8c-0.5,0.8-1.4,1.4-2.4,1.4c-1.5,0-2.7-1.2-2.7-2.7  c0-0.3,0.1-0.6,0.2-0.9l9.7-21.8L57.8,67c0,0-2.6,3.5-3.4,4.6C53.6,72.7,53,73,51.7,73L43.5,73L43.5,73z M53,51.8  c0-2.7,2.2-4.9,4.9-4.9c2.7,0,4.9,2.2,4.9,4.9c0,2.7-2.2,4.9-4.9,4.9C55.2,56.7,53,54.5,53,51.8L53,51.8z M125.5,46.9  c0,0-8.6,7.4-8.6,15.9c0,3.8,2.4,7,5.7,8.2c-1.2-0.9-1.9-2.3-1.9-3.9c0-4.8,4.8-8.9,4.8-8.9s4.9,4.2,4.9,8.9c0,1.6-0.8,3.1-1.9,4  c3.4-1.2,5.7-4.4,5.7-8.3C134.3,54.3,125.5,46.9,125.5,46.9L125.5,46.9z M125.5,35.1c0,0,14,11.8,14,25.4c0,7.7-6,14-13.8,14  c-7.7,0-14-6.3-14-14C111.7,46.9,125.5,35.1,125.5,35.1L125.5,35.1z"/><path d="M165.4,5.1c0.3,0,0.6,0.3,0.6,0.6v151.8c0,0.3-0.3,0.6-0.6,0.6H13.6c-0.3,0-0.6-0.3-0.6-0.6V5.7c0-0.3,0.3-0.6,0.6-0.6  H165.4L165.4,5.1z M164.8,6.3H14.2v150.6h150.6V6.3L164.8,6.3z"/><rect class="st4" height="170" id="_x3C_Slice_x3E__48_" width="173"/></svg>