<?xml version="1.0" ?><!DOCTYPE svg  PUBLIC '-//W3C//DTD SVG 1.1//EN'  'http://www.w3.org/Graphics/SVG/1.1/DTD/svg11.dtd'><svg height="167px" style="enable-background:new 0 0 170 167;" version="1.1" viewBox="0 0 170 167" width="170px" xml:space="preserve" xmlns="http://www.w3.org/2000/svg" xmlns:xlink="http://www.w3.org/1999/xlink"><style type="text/css">
<![CDATA[
	.st0{fill:#EF3E42;}
	.st1{fill:#54B948;}
	.st2{fill:#FFC425;}
	.st3{fill:#FFFFFF;}
	.st4{fill:none;}
]]>
</style><defs/><polygon class="st1" points="17.1,18.7 151,18.7 151,152.6 17.1,152.6 17.1,18.7 "/><path class="st3" d="M98.7,65.8c-2.7,0-4.8-2.2-4.8-4.8c0-2.7,2.2-4.8,4.8-4.8c2.7,0,4.8,2.2,4.8,4.8  C103.5,63.7,101.3,65.8,98.7,65.8L98.7,65.8z M41.5,38.2l1.8-10.1l6,6l-2.5,14.2l-14.2,2.5l-6-6L36.7,43L24.6,30.9l4.8-4.8  L41.5,38.2L41.5,38.2z M131.5,43l10.1,1.8l-6,6l-14.2-2.5l-2.5-14.2l6-6l1.8,10.1l12.1-12.1l4.8,4.8L131.5,43L131.5,43z   M126.7,133.1l-1.8,10.1l-6-6l2.5-14.2l14.2-2.5l6,6l-10.1,1.8l12.1,12.1l-4.8,4.8L126.7,133.1L126.7,133.1z M36.7,128.3l-10.1-1.8  l6-6l14.2,2.5l2.5,14.2l-6,6l-1.8-10.1l-12.1,12.1l-4.8-4.8L36.7,128.3L36.7,128.3z M84.5,65.8c-2.7,0-4.8-2.2-4.8-4.8  c0-2.7,2.2-4.8,4.8-4.8c2.7,0,4.8,2.2,4.8,4.8C89.3,63.7,87.1,65.8,84.5,65.8L84.5,65.8z M88.1,66.9c3.3,0,5.3,2.8,5.8,4.3l4.1,13.5  c0.8,2.9-2.9,4.1-3.8,1.3l-3.7-12.4h-1.7l6.4,22.1h-5.9v17.2c0,2.9-4.4,2.9-4.4,0V95.5h-1.8v17.3c0,3-4.4,3-4.4,0V95.7h-5.9  l6.4-22.1h-1.6L73.9,86c-0.9,2.7-4.6,1.6-3.8-1.3l4.1-13.6c0.4-1.5,2.4-4.3,5.8-4.3H88.1L88.1,66.9z M55.7,65.8  c-2.7,0-4.8-2.2-4.8-4.8c0-2.7,2.1-4.8,4.8-4.8c2.7,0,4.8,2.2,4.8,4.8C60.5,63.7,58.4,65.8,55.7,65.8L55.7,65.8z M61.3,66.8  c3.7,0,6.2,3.1,6.2,6.3v14.7c0,2.9-3.8,2.9-3.8,0V73.4H62v39c0,1.5-1.2,2.7-2.7,2.7c-1.5,0-2.7-1.2-2.7-2.7l0-22.6h-1.8l0,22.6  c0,1.5-1.2,2.7-2.7,2.7c-1.5,0-2.7-1.2-2.7-2.7l0-39h-1.8v14.4c0,2.9-3.8,2.9-3.8,0V73c0-3.5,2.7-6.2,6.1-6.2L61.3,66.8L61.3,66.8z   M112.5,65.8c-2.7,0-4.8-2.2-4.8-4.8c0-2.7,2.2-4.8,4.8-4.8c2.7,0,4.8,2.2,4.8,4.8C117.3,63.7,115.1,65.8,112.5,65.8L112.5,65.8z   M118.1,66.8c3.7,0,6.2,3.1,6.2,6.3v14.7c0,2.9-3.8,2.9-3.8,0V73.4h-1.8v39c0,1.5-1.2,2.7-2.7,2.7c-1.5,0-2.7-1.2-2.7-2.7l0-22.6  h-1.8v22.6c0,1.5-1.2,2.7-2.7,2.7c-1.5,0-2.7-1.2-2.7-2.7l0-39h-1.8v14.4c0,2.9-3.8,2.9-3.8,0V73c0-3.5,2.7-6.2,6.1-6.2L118.1,66.8  L118.1,66.8z M69.9,65.8c-2.7,0-4.8-2.2-4.8-4.8c0-2.7,2.2-4.8,4.8-4.8c2.7,0,4.8,2.2,4.8,4.8C74.7,63.7,72.5,65.8,69.9,65.8  L69.9,65.8z"/><path d="M160.6,9.2v153H7.6V9.2H160.6L160.6,9.2z M159.4,10.3H8.8v150.6h150.6V10.3L159.4,10.3z"/><rect class="st4" height="167" id="_x3C_Slice_x3E__48_" width="170"/></svg>