<?xml version="1.0" ?><!DOCTYPE svg  PUBLIC '-//W3C//DTD SVG 1.1//EN'  'http://www.w3.org/Graphics/SVG/1.1/DTD/svg11.dtd'><svg height="176px" style="enable-background:new 0 0 172 176;" version="1.1" viewBox="0 0 172 176" width="172px" xml:space="preserve" xmlns="http://www.w3.org/2000/svg" xmlns:xlink="http://www.w3.org/1999/xlink"><style type="text/css">
<![CDATA[
	.st0{fill:#EF3E42;}
	.st1{fill:#54B948;}
	.st2{fill:#FFC425;}
	.st3{fill:#FFFFFF;}
	.st4{fill:none;}
]]>
</style><defs/><polygon class="st0" points="16.7,17.5 150.6,17.5 150.6,151.4 16.7,151.4 16.7,17.5 "/><path class="st3" d="M64.6,67c0-7.4,6-13.4,13.4-13.4h7.5c7.4,0,13.4,6,13.4,13.4v65.3H64.6V67L64.6,67L64.6,67z M71.2,75v35.8h21  V75H71.2L71.2,75L71.2,75z M81.7,88.5c0,0-4.8,4.1-4.8,8.9c0,2.1,1.3,3.9,3.2,4.6c-0.6-0.5-1.1-1.3-1.1-2.2c0-2.7,2.7-5,2.7-5  s2.8,2.3,2.8,5c0,0.9-0.4,1.7-1.1,2.2c1.9-0.7,3.2-2.5,3.2-4.6C86.6,92.7,81.7,88.5,81.7,88.5L81.7,88.5L81.7,88.5z M81.7,81.9  c0,0,7.9,6.6,7.9,14.2c0,4.3-3.4,7.9-7.7,7.9c-4.3,0-7.9-3.5-7.9-7.9C73.9,88.5,81.7,81.9,81.7,81.9L81.7,81.9L81.7,81.9z   M75.3,46.9h12.9v4.3H75.3V46.9L75.3,46.9L75.3,46.9z M87.4,36.3l17.7-5.9v17.4l-17.7-5.9V36.3L87.4,36.3L87.4,36.3z M62.2,136  c0-0.7,0.6-1.3,1.3-1.3h36.3c0.8,0,1.3,0.6,1.3,1.3v1.1c0,0.7-0.6,1.3-1.3,1.3H63.6c-0.7,0-1.3-0.6-1.3-1.3V136L62.2,136L62.2,136z   M74.8,36.1c-1.3,0-2.4,1.1-2.4,2.4c0,1.3,1.1,2.4,2.4,2.4c1.3,0,2.4-1.1,2.4-2.4C77.2,37.2,76.1,36.1,74.8,36.1L74.8,36.1  L74.8,36.1z M78.3,34.6c0-1.9,1.5-3.3,3.3-3.3c2,0,3.5,1.5,3.5,3.3v9.9h-6.9v-2.8c-0.9,0.9-2.1,1.5-3.5,1.5c-2.6,0-4.8-2.1-4.8-4.8  c0-2.6,2.1-4.8,4.8-4.8c1.4,0,2.6,0.6,3.5,1.6V34.6L78.3,34.6L78.3,34.6z"/><path d="M159.6,7.9c0.3,0,0.6,0.3,0.6,0.6v151.8c0,0.3-0.3,0.6-0.6,0.6H7.8c-0.3,0-0.6-0.3-0.6-0.6V8.5c0-0.3,0.3-0.6,0.6-0.6H159.6  L159.6,7.9z M159,9.1H8.4v150.6H159V9.1L159,9.1z"/><rect class="st4" height="176" id="_x3C_Slice_x3E__48_" width="172"/></svg>