<?xml version='1.0' encoding='iso-8859-1'?>
<svg version="1.1" xmlns="http://www.w3.org/2000/svg" viewBox="0 0 10.561 10.561" xmlns:xlink="http://www.w3.org/1999/xlink" enable-background="new 0 0 10.561 10.561">
  <g>
    <g>
      <path fill="#020400" d="M0.721,5.76H9.84c0.133,0,0.24-0.107,0.24-0.24c0-0.133-0.107-0.24-0.24-0.24H9.601    c0-2.306-1.808-4.184-4.083-4.308C5.519,0.968,5.521,0.964,5.521,0.96V0.24C5.521,0.108,5.413,0,5.28,0    C5.147,0,5.04,0.108,5.04,0.24v0.72c0,0.004,0.002,0.008,0.003,0.012C2.768,1.096,0.96,2.974,0.96,5.28H0.721    c-0.133,0-0.24,0.108-0.24,0.24C0.48,5.653,0.588,5.76,0.721,5.76z M5.28,1.44c2.121,0,3.84,1.719,3.84,3.84H1.44    C1.44,3.159,3.159,1.44,5.28,1.44z M10.32,9.36h-0.24V8.64c0-0.132-0.107-0.24-0.24-0.24H9.601V6.72h0.72    c0.133,0,0.24-0.107,0.24-0.24c0-0.133-0.107-0.24-0.24-0.24H0.24C0.107,6.24,0,6.347,0,6.48c0,0.132,0.107,0.24,0.24,0.24h2.64    v0.24c0,0.397,0.322,0.72,0.721,0.72h3.12c0.132,0,0.239,0.108,0.239,0.24V8.4H6.721c-0.133,0-0.24,0.107-0.24,0.24v0.72H6.24    C6.107,9.36,6,9.467,6,9.6v0.96h0.48V9.84h3.6v0.72h0.481V9.6C10.561,9.467,10.453,9.36,10.32,9.36z M3.601,7.2    c-0.133,0-0.24-0.108-0.24-0.24V6.72h5.76V8.4H7.44V7.92c0-0.313-0.201-0.577-0.481-0.676V7.2H3.601z M9.601,9.36H6.96V8.88h2.641    V9.36z"/>
    </g>
  </g>
</svg>
